# xmcd CD database file
#
# Track frame offsets:
#	150
#	19762
#	33067
#	45487
#	59288
#	79016
#
# Disc length: 1219 seconds
#
# Revision: 0
# Processed by: cddbd v1.5.1PL2 Copyright (c) Steve Scherf et al.
# Submitted via: CDex 1.50
#
DISCID=3a04c106
DTITLE=Skin The Cat - Skin The Cat
DYEAR=2005
DGENRE=Country
TTITLE0=Boogie Boots
TTITLE1=On The Weekend
TTITLE2=Little Bird
TTITLE3=Solid Gold
TTITLE4=Wanna Be A Star
TTITLE5=Too Much Coffee
EXTD=YEAR: 2005
EXTT0=
EXTT1=
EXTT2=
EXTT3=
EXTT4=
EXTT5=
PLAYORDER=
